<?xml version="1.0" encoding="UTF-8" standalone="no"?>
<!DOCTYPE svg PUBLIC "-//W3C//DTD SVG 1.1//EN" "http://www.w3.org/Graphics/SVG/1.1/DTD/svg11.dtd">
<svg width="100%" height="100%" viewBox="0 0 1329 420" version="1.1" xmlns="http://www.w3.org/2000/svg" xmlns:xlink="http://www.w3.org/1999/xlink" xml:space="preserve" xmlns:serif="http://www.serif.com/" style="fill-rule:evenodd;clip-rule:evenodd;stroke-linejoin:round;stroke-miterlimit:2;">
    <g id="ArtBoard1" transform="matrix(0.961183,0,0,0.76592,-201.421198,-740.877515)">
        <rect x="209.555" y="967.305" width="1382.401" height="547.435" style="fill:none;"/>
        <clipPath id="_clip1">
            <rect x="209.555" y="967.305" width="1382.401" height="547.435"/>
        </clipPath>
        <g clip-path="url(#_clip1)">
            <g transform="matrix(0.104423,0,0,0.131044,465.485142,857.778771)">
                <g transform="matrix(4.166667,0,0,4.166667,-4198.990033,-1243.729313)">
                    <path d="M3425.27,1501.68L590.625,1501.68C495.9,1501.68 419.111,1424.89 419.111,1330.17L419.111,669.834C419.111,575.109 495.9,498.32 590.625,498.32L3425.27,498.32C3519.99,498.32 3596.78,575.109 3596.78,669.834L3596.78,1330.17C3596.78,1424.89 3519.99,1501.68 3425.27,1501.68Z" style="fill-rule:nonzero;"/>
                </g>
                <g transform="matrix(4.166667,0,0,4.166667,-4198.990033,-1243.729313)">
                    <path d="M1093.39,1111.26L1228.23,1033.411C1253.95,1018.56 1253.95,981.438 1228.23,966.588L1093.39,888.738L977.986,1000L1093.39,1111.26Z" style="fill:rgb(254,193,7);fill-rule:nonzero;"/>
                </g>
                <g transform="matrix(4.166667,0,0,4.166667,-4198.990033,-1658.88917)">
                    <path d="M1502.54,1083.32L1631.4,1083.32C1631.4,1151.18 1597.47,1234.67 1494.92,1234.67C1394.66,1234.67 1357.68,1151.94 1357.68,1087.89C1357.68,1007.84 1408.38,938.835 1497.59,938.835C1542.57,938.835 1579.55,959.802 1608.14,996.781L1578.41,1021.18C1553.25,989.537 1525.04,976.576 1495.68,976.576C1448.79,976.576 1401.52,1012.03 1401.52,1085.61C1401.52,1156.13 1445.36,1198.45 1493.4,1198.45C1528.85,1198.45 1570.78,1187.01 1586.41,1121.06L1502.54,1121.06L1502.54,1083.32Z" style="fill:white;fill-rule:nonzero;"/>
                </g>
                <g transform="matrix(4.166667,0,0,4.166667,-4198.990033,-1658.88917)">
                    <path d="M2232.46,1132.46C2232.46,1091.65 2205.78,1073.02 2176.04,1073.02C2139.82,1073.02 2121.53,1097.19 2121.53,1131.67C2121.53,1169.71 2141.35,1191.11 2175.28,1191.11C2213.4,1191.11 2232.46,1165.35 2232.46,1132.46ZM2273.64,1218.28C2273.64,1270.19 2251.91,1309.03 2173.37,1309.03C2129.15,1309.03 2100.94,1295.95 2088.36,1267.42L2123.81,1254.74C2133.73,1269.8 2147.45,1277.32 2177.19,1277.32C2206.92,1277.32 2232.84,1263.46 2232.84,1221.45L2232.84,1201.35C2211.11,1222.35 2190.91,1227.17 2166.89,1227.17C2119.62,1227.17 2081.5,1196.66 2081.5,1132.86C2081.5,1062.72 2122.67,1036.96 2163.08,1036.96C2194.34,1036.96 2214.55,1040.63 2235.51,1063.61L2235.51,1042.51L2273.64,1042.51L2273.64,1218.28Z" style="fill:white;fill-rule:nonzero;"/>
                </g>
                <g transform="matrix(4.166667,0,0,4.166667,-4198.990033,-1658.88917)">
                    <rect x="2300.52" y="938.835" width="41.18" height="288.585" style="fill:white;fill-rule:nonzero;"/>
                </g>
                <g transform="matrix(4.166667,0,0,4.166667,-4198.990033,-1658.88917)">
                    <path d="M2448.21,1068.25C2445.59,1068.25 2442.9,1068.5 2440.23,1069.01C2427.28,1071.48 2417.02,1078.01 2410.57,1087.9C2404.38,1097.39 2402.21,1109.21 2404.23,1122.23L2490.97,1105.71C2485.85,1083.54 2468.54,1068.25 2448.21,1068.25ZM2451.18,1227.42C2430.28,1227.42 2411.55,1220.34 2397.01,1206.95C2382.5,1193.59 2372.5,1174.24 2368.07,1150.99C2362.56,1122.05 2365.86,1096.22 2377.61,1076.29C2389.31,1056.45 2408.73,1043.44 2433.77,1038.671C2439.73,1037.541 2445.58,1036.96 2451.17,1036.96C2473.79,1036.96 2493.07,1046.051 2508.48,1063.96C2521.27,1078.84 2530.92,1099.48 2536.37,1123.68L2536.89,1125.97L2409.56,1150.22C2415.95,1179.55 2430.34,1193.82 2453.5,1193.82C2457.44,1193.82 2461.69,1193.39 2466.13,1192.54C2483.73,1189.19 2493.54,1178.29 2503.65,1161.78L2504.74,1160.01L2536.77,1175.86L2535.69,1177.92C2521.92,1204.23 2500.55,1219.81 2470.38,1225.55C2463.86,1226.79 2457.4,1227.42 2451.18,1227.42Z" style="fill:white;fill-rule:nonzero;"/>
                </g>
                <g transform="matrix(4.166667,0,0,4.166667,-4198.990033,-1658.88917)">
                    <path d="M2756.22,1075.69C2790.53,1075.69 2809.6,1062.73 2809.6,1030.33C2809.6,994.494 2787.48,983.819 2756.22,983.819L2702.2,983.819L2702.2,1075.69L2756.22,1075.69ZM2657.21,1227.8L2657.21,946.459L2762.71,946.459C2822.94,946.459 2853.82,988.013 2853.82,1026.14C2853.82,1085.99 2814.55,1113.05 2760.8,1113.05L2702.2,1113.05L2702.2,1227.8L2657.21,1227.8Z" style="fill:white;fill-rule:nonzero;"/>
                </g>
                <g transform="matrix(4.166667,0,0,4.166667,-4198.990033,-1658.88917)">
                    <rect x="2882.17" y="938.835" width="41.17" height="288.585" style="fill:white;fill-rule:nonzero;"/>
                </g>
                <g transform="matrix(4.166667,0,0,4.166667,-4198.990033,-1658.88917)">
                    <path d="M3034.22,1134.41C3000.21,1134.41 2995.13,1153.96 2995.13,1165.61C2995.13,1184.72 3008.23,1195.24 3032.01,1195.24C3070.13,1195.24 3074.25,1174.74 3074.25,1165.93C3074.25,1151.39 3063.76,1134.41 3034.22,1134.41ZM3113.37,1227.42L3078,1227.42L3078,1209.23C3067.66,1217.01 3053.39,1227.42 3020.34,1227.42C2980.46,1227.42 2956.64,1203.84 2956.64,1164.35C2956.64,1134.06 2976.24,1103.49 3020.03,1103.49C3048.14,1103.49 3062.83,1110.13 3073.62,1117.93L3073.62,1103.18C3073.62,1089.93 3068.81,1072.3 3027.28,1072.3C3008.59,1072.3 2995.63,1076.73 2981.91,1081.43L2977.05,1083.08L2970.2,1048.85L2971.9,1048.161C2990.42,1040.62 3009.47,1036.96 3030.12,1036.96C3086.92,1036.96 3113.37,1060.41 3113.37,1110.75L3113.37,1227.42Z" style="fill:white;fill-rule:nonzero;"/>
                </g>
                <g transform="matrix(4.166667,0,0,4.166667,-4198.990033,-1658.88917)">
                    <path d="M3193.75,1188.16L3124.46,1036.96L3169.06,1036.96L3217.01,1147.75L3267.35,1036.96L3312.72,1036.96L3179.57,1306.45L3134.2,1306.45L3193.75,1188.16Z" style="fill:white;fill-rule:nonzero;"/>
                </g>
                <g transform="matrix(4.166667,0,0,4.166667,-4198.990033,-1658.88917)">
                    <path d="M1745.98,1036.96C1691.39,1036.96 1647.13,1081.22 1647.13,1135.81C1647.13,1190.41 1691.39,1234.67 1745.98,1234.67C1800.58,1234.67 1844.84,1190.41 1844.84,1135.81C1844.84,1081.22 1800.58,1036.96 1745.98,1036.96ZM1745.98,1074.34C1779.88,1074.34 1807.46,1101.91 1807.46,1135.81C1807.46,1169.71 1779.88,1197.29 1745.98,1197.29C1712.09,1197.29 1684.51,1169.71 1684.51,1135.81C1684.51,1101.91 1712.09,1074.34 1745.98,1074.34Z" style="fill:white;fill-rule:nonzero;"/>
                </g>
                <g transform="matrix(4.166667,0,0,4.166667,-4198.990033,-1658.88917)">
                    <path d="M1965.31,1036.96C1910.72,1036.96 1866.46,1081.22 1866.46,1135.81C1866.46,1190.41 1910.72,1234.67 1965.31,1234.67C2019.91,1234.67 2064.169,1190.41 2064.169,1135.81C2064.169,1081.22 2019.91,1036.96 1965.31,1036.96ZM1965.31,1074.34C1999.21,1074.34 2026.79,1101.91 2026.79,1135.81C2026.79,1169.71 1999.21,1197.29 1965.31,1197.29C1931.42,1197.29 1903.84,1169.71 1903.84,1135.81C1903.84,1101.91 1931.42,1074.34 1965.31,1074.34Z" style="fill:white;fill-rule:nonzero;"/>
                </g>
                <g transform="matrix(4.166667,0,0,4.166667,-4198.990033,-1243.729313)">
                    <path d="M750.013,1309.51L1093.39,1111.26L977.986,1000L692.142,1275.59L692.142,1276.1C692.142,1305.8 724.293,1324.36 750.013,1309.51Z" style="fill:rgb(243,67,53);fill-rule:nonzero;"/>
                </g>
                <g transform="matrix(4.166667,0,0,4.166667,-4198.990033,-1243.729313)">
                    <path d="M1093.39,888.738L750.013,690.491C724.293,675.641 692.142,694.203 692.142,723.903L692.142,724.409L977.986,1000L1093.39,888.738Z" style="fill:rgb(76,175,79);fill-rule:nonzero;"/>
                </g>
                <g transform="matrix(4.166667,0,0,4.166667,-4198.990033,-1243.729313)">
                    <path d="M692.142,724.409L692.142,1275.59L977.986,1000L692.142,724.409Z" style="fill:rgb(33,151,244);fill-rule:nonzero;"/>
                </g>
            </g>
        </g>
    </g>
</svg>
